<svg id="Layer_1" data-name="Layer 1" xmlns="http://www.w3.org/2000/svg" viewBox="0 0 927.42 241.47"><defs><style>.cls-1{fill:#fff;}.cls-2{fill:none;stroke:#fff;stroke-miterlimit:10;}</style></defs><title>logo-mutant-branco</title><path class="cls-1" d="M276.07,100.75c0,.66,0,1.31,0,2q0,86.52,0,173c0,1.52-.33,1.91-1.88,1.9q-15-.12-30,0c-1.52,0-1.86-.44-1.78-1.85.13-2.06,0-4.12,0-6.3a3.41,3.41,0,0,0-.63.22c-6.6,4.66-14.07,7.11-21.94,8.45a123.08,123.08,0,0,1-39.76.26c-10.22-1.58-19.84-4.87-28.09-11.41-7.73-6.12-12.67-14.11-15.6-23.41-3.71-11.78-4.25-23.86-3.37-36.07A65.5,65.5,0,0,1,139,183.65c5.54-11.59,14.6-19.32,26.49-23.88a85.48,85.48,0,0,1,26.28-5.11,120.39,120.39,0,0,1,23.7.88c9.53,1.38,18.58,4.07,26.37,10.06a4.21,4.21,0,0,0,.6.26V100.75ZM242.5,217.56c-.22-5.62.26-11.42-.62-17.2-1.32-8.7-5.73-14.89-14-18.15a50.65,50.65,0,0,0-15.48-3.12c-8.37-.52-16.73-.47-25,1.37-9.32,2.07-15.69,7.42-18.35,16.81a51,51,0,0,0-1.81,10.55c-.64,9.18-.62,18.34,1.41,27.38,2.15,9.61,7.87,15.89,17.53,18.38a58.57,58.57,0,0,0,11.94,1.71c8.43.39,16.83.29,25.11-1.66,11.83-2.79,17.75-9.44,19-21.54C242.73,227.32,242.35,222.52,242.5,217.56Z" transform="translate(-82.29 -100.75)"/><path class="cls-1" d="M384.75,229.36H333.29c-1.83,0-1.83,0-1.53,1.73,1.83,10.69,8.09,17.19,18.55,19.89,8.62,2.22,17.43,2.54,26.25,2.58,12.32.06,24.61-.53,36.89-1.47,3-.22,5.9-.6,8.88-.6,2.47,0,2.47-.13,2.47,2.39,0,7,0,13.92,0,20.88,0,1.19-.37,1.51-1.51,1.63-9.73,1-19.47,1.91-29.25,2.25-11.4.4-22.8.75-34.18-.18-10.22-.83-20.28-2.54-29.88-6.35-11.83-4.7-21.32-12.1-27.16-23.68A59.31,59.31,0,0,1,297,227.31a87,87,0,0,1,.51-22.62c3.22-19.83,13.53-34.39,31.93-42.91A80.41,80.41,0,0,1,354,155.24a125.86,125.86,0,0,1,25.67-.28c11.12,1,21.9,3.28,31.82,8.67,12.82,7,20.74,17.74,24.46,31.72a79.13,79.13,0,0,1,2.47,21c0,3.84-.05,7.67,0,11.51,0,1.27-.36,1.58-1.6,1.58Q410.8,229.33,384.75,229.36Zm-16.94-24.69H377c8.48,0,16.95,0,25.43,0,1.28,0,1.57-.41,1.33-1.55s-.39-2.18-.61-3.26c-2-10-7.83-16.3-17.76-18.51a77.42,77.42,0,0,0-33.16-.07c-5.37,1.15-10.2,3.47-13.89,7.72-3.55,4.09-5.23,9-6.32,14.19-.26,1.28.05,1.47,1.24,1.47C344.8,204.65,356.3,204.67,367.81,204.67Z" transform="translate(-82.29 -100.75)"/><path class="cls-1" d="M976.33,268.08c-10.73,7.83-22.78,10.41-35.35,11.36a142.76,142.76,0,0,1-26.15-.37c-9.16-1-18.1-2.94-26.14-7.79-8.89-5.38-13.79-13.31-15-23.57-.88-7.49-.37-14.81,3-21.71,3.69-7.66,10.05-12.29,17.71-15.4a80.17,80.17,0,0,1,20.37-4.8c11.33-1.42,22.75-1.38,34.12-2.12,8.7-.56,17.4-1.18,26-2.31.54-.07,1.29.12,1.16-.92-.49-3.91-1.09-7.78-3.26-11.2-2.66-4.2-6.84-6-11.41-7-7.19-1.61-14.51-1.59-21.83-1.51-9.58.12-19.17.31-28.72,1.2-6.57.62-13.12,1.48-19.68,2.23a7,7,0,0,0-.9.13c-1.23.28-1.75,0-1.73-1.47.08-7.21.05-14.43,0-21.65,0-1,.22-1.32,1.29-1.5a331.58,331.58,0,0,1,59.36-4.38c9.6.15,19.13,1,28.41,3.64,8.74,2.52,16.54,6.63,22.35,13.89,5,6.27,7.52,13.59,8.8,21.41a75.39,75.39,0,0,1,.93,12.19q0,34.76,0,69.49c0,1.41-.39,1.72-1.74,1.71q-15.06-.09-30.12,0c-1.3,0-1.6-.36-1.55-1.6C976.4,273.49,976.33,270.93,976.33,268.08Zm-40.56-12.61a95.4,95.4,0,0,0,12.07-.61c6.25-.73,12.33-2,17.91-5,6-3.21,9.9-7.94,10.47-14.89.26-3.25,0-6.55.14-9.83,0-1.39-.45-1.57-1.65-1.37a140.61,140.61,0,0,1-15.31,1.73c-10.77.68-21.55,1.19-32.31,1.86a43.91,43.91,0,0,0-12.73,2.35c-3.14,1.19-5.56,3.1-6.36,6.52a21.87,21.87,0,0,0-.09,9.15,9.12,9.12,0,0,0,4.29,6.13,16.47,16.47,0,0,0,4.26,1.9C922.77,255.24,929.26,255.42,935.77,255.47Z" transform="translate(-82.29 -100.75)"/><path class="cls-1" d="M714.18,207.37c0,7.77,0,15.54,0,23.31a41.23,41.23,0,0,0,1.17,9c1.61,7.07,6,11.16,13.1,12.51a65.16,65.16,0,0,0,15.22.74,104.33,104.33,0,0,0,11.44-1c.84-.13,1.13.11,1.13,1q-.06,11.36,0,22.71c0,.81-.19,1.09-1,1.22a134.38,134.38,0,0,1-25.35,1.26,73.22,73.22,0,0,1-20.48-3.47c-14.58-4.85-23.47-14.84-27-29.7a74.86,74.86,0,0,1-1.8-17.4q0-22.34,0-44.66c0-1.26-.32-1.57-1.58-1.56-7.61.06-15.23,0-22.85,0-1.1,0-1.45-.21-1.44-1.39q.09-10.89,0-21.79c0-1.27.44-1.46,1.55-1.46,7.52,0,15,0,22.55,0,1.33,0,1.78-.25,1.77-1.7-.07-9.63,0-19.27-.06-28.91,0-1.25.19-1.71,1.61-1.7q15.14.1,30.27,0c1.45,0,1.73.46,1.72,1.8,0,9.58,0,19.17-.06,28.75,0,1.33.27,1.78,1.71,1.77,14.38-.06,28.76,0,43.14-.07,1.39,0,1.78.37,1.77,1.75-.07,7.17-.06,14.33,0,21.49,0,1.16-.32,1.42-1.44,1.41-14.48,0-29,0-43.44-.06-1.4,0-1.74.37-1.73,1.74.06,8.12,0,16.25,0,24.37Z" transform="translate(-82.29 -100.75)"/><path class="cls-1" d="M812.61,168.53a40.78,40.78,0,0,1,12.82-8.35,61,61,0,0,1,18.22-4,94.65,94.65,0,0,1,20.67.61c2.07.28,2.07.23,2.07,2.34V182c0,1.86,0,1.86-1.91,1.7a209.06,209.06,0,0,0-25.4-.5,53.78,53.78,0,0,0-10.31,1.44c-8.32,2-13.3,7.1-15,15.48a66.85,66.85,0,0,0-1.13,13.39q0,31.25,0,62.51c0,1.32-.3,1.67-1.64,1.66q-15.13-.09-30.27,0c-1.28,0-1.57-.33-1.57-1.58q.06-58.89,0-117.77c0-1.21.22-1.62,1.53-1.62q15.21.09,30.43,0c1.16,0,1.55.26,1.51,1.49C812.55,161.48,812.61,164.79,812.61,168.53Z" transform="translate(-82.29 -100.75)"/><path class="cls-2" d="M604.76,276.93c-6.5-.27-13-.07-19.51-.07a4.76,4.76,0,0,1-3.48-1.36q-12.13-11.06-24.33-22.06c-3.89-3.52-7.78-7-11.62-10.61-.82-.76-1.31-.73-2.1,0-5.07,4.72-10.18,9.4-15.28,14.1q-10.61,9.76-21.23,19.52a1.76,1.76,0,0,1-1.27.68c-7.42-.09-14.83-.15-22.24-.22" transform="translate(-82.29 -100.75)"/><path class="cls-2" d="M483.87,157.78c-.06-.06-.05-.19-.08-.29,1,0,1.91-.13,2.87-.13,6.1,0,12.21,0,18.32,0a3.94,3.94,0,0,1,2.94,1.13c6.48,6,13,11.91,19.53,17.88Q535.76,184,544,191.67c.71.66,1.15.65,1.83,0q10.14-9.41,20.3-18.77c5.25-4.84,10.53-9.66,15.77-14.52a3.72,3.72,0,0,1,2.82-1.06c6,.06,12,0,18,0,.52,0,1.11-.23,1.59.22" transform="translate(-82.29 -100.75)"/><path class="cls-1" d="M573.68,219.27l63.21,58-33.58-.17-50.53-47.62a20.23,20.23,0,0,1-3.84-11.07c0-.62,0-1.22,0-1.82v-.06c.41-7.08,6.53-14,6.53-14l49.11-45.19h34.63l-58.19,54.53-5,5.07-1.41,1.43Z" transform="translate(-82.29 -100.75)"/><path class="cls-1" d="M514,219.27l-63.21,58,33.58-.17,50.53-47.62a20.26,20.26,0,0,0,3.83-11.07c0-.62,0-1.22,0-1.82v-.06c-.41-7.08-6.53-14-6.53-14l-49.11-45.19H448.44l58.19,54.53,5,5.07,1.42,1.43Z" transform="translate(-82.29 -100.75)"/><path class="cls-1" d="M473.47,306c0,8-5.8,12.85-15.43,12.85H447.1v12.53h-2.79V293.1H458C467.67,293.1,473.47,297.91,473.47,306Zm-2.85,0c0-6.62-4.37-10.4-12.58-10.4H447.1v20.74H458C466.25,316.35,470.62,312.57,470.62,306Z" transform="translate(-82.29 -100.75)"/><path class="cls-1" d="M478.72,317.11c0-8.48,6.07-14.49,14.28-14.49s14.27,6,14.27,14.49-6.07,14.5-14.27,14.5S478.72,325.59,478.72,317.11Zm25.77,0c0-7.16-4.93-12-11.49-12s-11.49,4.87-11.49,12,4.92,12,11.49,12S504.49,324.28,504.49,317.11Z" transform="translate(-82.29 -100.75)"/><path class="cls-1" d="M555.74,302.83l-10.83,28.56h-2.57l-9.63-24.78L523,331.39h-2.52l-10.83-28.56h2.63l9.52,25.5,9.73-25.5h2.36l9.68,25.44,9.63-25.44Z" transform="translate(-82.29 -100.75)"/><path class="cls-1" d="M585.39,317.77H560.83c.27,6.78,5.25,11.38,12.09,11.38a11.5,11.5,0,0,0,9.13-4l1.59,1.81a13.68,13.68,0,0,1-10.78,4.65c-8.64,0-14.71-6-14.71-14.5s5.85-14.49,13.68-14.49,13.62,5.9,13.62,14.38C585.45,317.22,585.39,317.5,585.39,317.77Zm-24.51-2.14h21.89c-.39-6.18-4.87-10.61-10.94-10.61S561.32,309.4,560.88,315.63Z" transform="translate(-82.29 -100.75)"/><path class="cls-1" d="M607.44,302.62v2.68c-.22,0-.44-.06-.66-.06-6.35,0-10.12,4.21-10.12,11.27v14.88h-2.74V302.83h2.63v6.24C598.3,304.91,602.08,302.62,607.44,302.62Z" transform="translate(-82.29 -100.75)"/><path class="cls-1" d="M638.84,317.77H614.28c.27,6.78,5.25,11.38,12.08,11.38a11.53,11.53,0,0,0,9.14-4l1.59,1.81a13.69,13.69,0,0,1-10.78,4.65c-8.64,0-14.72-6-14.72-14.5s5.86-14.49,13.68-14.49,13.62,5.9,13.62,14.38C638.89,317.22,638.84,317.5,638.84,317.77Zm-24.51-2.14h21.88c-.38-6.18-4.87-10.61-10.94-10.61S614.77,309.4,614.33,315.63Z" transform="translate(-82.29 -100.75)"/><path class="cls-1" d="M672.75,290.8v40.59h-2.68v-6.73a12.66,12.66,0,0,1-11.7,6.95c-8,0-14.12-6-14.12-14.5s6.07-14.49,14.12-14.49A12.8,12.8,0,0,1,670,309.45V290.8ZM670,317.11c0-7.16-4.93-12-11.49-12S647,310,647,317.11s4.92,12,11.49,12S670,324.28,670,317.11Z" transform="translate(-82.29 -100.75)"/><path class="cls-1" d="M726.8,317.11c0,8.54-6.07,14.5-14.12,14.5a12.75,12.75,0,0,1-11.7-6.95v6.73h-2.63V290.8h2.74v18.54a12.77,12.77,0,0,1,11.59-6.72C720.73,302.62,726.8,308.52,726.8,317.11Zm-2.74,0c0-7.16-5-12-11.54-12S701,310,701,317.11s4.93,12,11.49,12S724.06,324.28,724.06,317.11Z" transform="translate(-82.29 -100.75)"/><path class="cls-1" d="M757.38,302.83l-14.66,32.44c-2.3,5.26-5.15,7-8.92,7a9.1,9.1,0,0,1-6.62-2.57l1.37-2.08a6.94,6.94,0,0,0,5.3,2.24c2.63,0,4.54-1.2,6.29-5.08l1.54-3.45-12.86-28.45h2.9l11.43,25.55,11.44-25.55Z" transform="translate(-82.29 -100.75)"/><path class="cls-1" d="M814.49,331.39l-.06-32.77-16,27.68H797l-16-27.57v32.66h-2.74V293.1h2.35l17.13,29.59,17.12-29.59h2.3l.05,38.29Z" transform="translate(-82.29 -100.75)"/><path class="cls-1" d="M830.24,315.14v-22H833V315c0,9.58,4.6,14.06,12.58,14.06s12.53-4.48,12.53-14.06V293.1h2.79v22c0,10.94-5.85,16.52-15.37,16.52S830.24,326.08,830.24,315.14Z" transform="translate(-82.29 -100.75)"/><path class="cls-1" d="M880.51,295.61H866.73V293.1h30.36v2.51H883.3v35.78h-2.79Z" transform="translate(-82.29 -100.75)"/><path class="cls-1" d="M925.75,320.61H903.54l-4.86,10.78h-3l17.61-38.29h2.79l17.62,38.29h-3Zm-1-2.35-10.06-22.1-10,22.1Z" transform="translate(-82.29 -100.75)"/><path class="cls-1" d="M971.81,293.1v38.29h-2.29l-26.1-33.26v33.26h-2.79V293.1H943l26,33.26V293.1Z" transform="translate(-82.29 -100.75)"/><path class="cls-1" d="M992.49,295.61H978.71V293.1h30.36v2.51H995.28v35.78h-2.79Z" transform="translate(-82.29 -100.75)"/><rect id="_Rectangle_" data-name="&lt;Rectangle&gt;" class="cls-1" x="16.43" y="135.01" width="52.22" height="19.62"/><rect id="_Rectangle_2" data-name="&lt;Rectangle&gt;" class="cls-1" y="112.94" width="44.85" height="12.51"/><rect id="_Rectangle_3" data-name="&lt;Rectangle&gt;" class="cls-1" x="11.89" y="96.64" width="29.19" height="7.97"/><polygon id="_Path_" data-name="&lt;Path&gt;" class="cls-1" points="90.84 111.84 71.31 111.84 55.67 111.84 55.67 119.81 71.31 119.81 90.84 119.81 90.84 111.84"/><rect id="_Rectangle_4" data-name="&lt;Rectangle&gt;" class="cls-1" x="32.53" y="76.4" width="30.39" height="7.97"/></svg>